<svg width="0" height="0" class="hidden">
  <symbol version="1.1" xmlns="http://www.w3.org/2000/svg" xmlns:xlink="http://www.w3.org/1999/xlink" fill="#000000" viewBox="0 -139.5 750 750" id="verve">
    <g id="SVGRepo_bgCarrier" stroke-width="0"></g>
    <g id="SVGRepo_tracerCarrier" stroke-linecap="round" stroke-linejoin="round"></g>
    <g id="SVGRepo_iconCarrier">
      <desc>Created with Sketch.</desc>
      <defs></defs>
      <g id="Page-1" stroke="none" stroke-width="1" fill="none" fill-rule="evenodd">
        <g id="verve" fill-rule="nonzero">
          <rect id="Rectangle-path" fill="#00425F" x="0" y="0" width="750" height="471" rx="40"></rect>
          <circle id="Oval" fill="#EE312A" cx="156.26347" cy="215.5" r="115.26347"></circle>
          <path d="M156.26347,264.87251 C130.48369,206.43174 111.57857,151.84021 111.57857,151.84021 L72.05384,151.84021 C72.05384,151.84021 96.11071,221.91184 140.79561,309.54065 L171.73134,309.54065 C216.41624,221.91184 240.47311,151.84021 240.47311,151.84021 L200.94837,151.84021 C200.94837,151.84021 182.04325,206.43174 156.26347,264.87251 Z" id="Shape" fill="#FFFFFF"></path>
          <path d="M708.04515,257.60566 L630.71641,257.60566 C630.71641,257.60566 632.43441,283.3869 666.80307,283.3869 C683.98685,283.3869 701.17192,278.22677 701.17192,278.22677 L704.60925,305.72097 C704.60925,305.72097 687.42418,312.59491 663.36588,312.59491 C628.99845,312.59491 598.06688,295.41041 598.06688,247.29525 C598.06688,209.48978 622.12375,185.4322 656.4926,185.4322 C708.04515,185.4322 711.48248,236.98469 708.04515,257.60566 Z M654.77471,209.48978 C632.43436,209.48978 630.71641,233.54736 630.71641,233.54736 L678.83158,233.54736 C678.83158,233.54736 677.11363,209.48978 654.77471,209.48978 Z" id="Shape" fill="#FFFFFF"></path>
          <path d="M442.3337,216.74823 L447.48884,189.25332 C447.48884,189.25332 407.67636,177.17202 375.31538,199.56388 L375.31538,309.54067 L409.68552,309.54067 L409.68281,220.18485 C423.42925,209.87443 442.3337,216.74823 442.3337,216.74823 Z" id="Shape" fill="#FFFFFF"></path>
          <path d="M348.41613,257.60566 L271.08739,257.60566 C271.08739,257.60566 272.80539,283.3869 307.17405,283.3869 C324.35783,283.3869 341.54148,278.22677 341.54148,278.22677 L344.97881,305.72097 C344.97881,305.72097 327.79517,312.59491 303.73687,312.59491 C269.36802,312.59491 238.43649,295.41041 238.43649,247.29525 C238.43649,209.48978 262.49479,185.4322 296.86364,185.4322 C348.41613,185.4322 351.852,236.98469 348.41613,257.60566 Z M295.14426,209.48978 C272.80534,209.48978 271.08739,233.54736 271.08739,233.54736 L319.20256,233.54736 C319.20256,233.54736 317.4846,209.48978 295.14426,209.48978 Z" id="Shape" fill="#FFFFFF"></path>
          <path d="M525.80355,268.32373 C515.12048,242.341853 506.501709,215.55843 500.02729,188.22223 L465.66129,188.22677 C465.66129,188.22677 482.845,254.57171 512.05993,309.5462 L539.54717,309.5462 C568.76212,254.57171 585.94581,188.239 585.94581,188.239 L551.57981,188.239 C545.103957,215.569341 536.48521,242.34708 525.80355,268.32373 Z" id="Shape" fill="#FFFFFF"></path>
        </g>
      </g>
    </g>
  </symbol>
  <symbol id="mastercard" xmlns="http://www.w3.org/2000/svg" viewBox="0 -54.25 482.51 482.51">
    <title>mastercard</title>
    <g>
      <path d="M220.13,421.67V396.82c0-9.53-5.8-15.74-15.32-15.74-5,0-10.35,1.66-14.08,7-2.9-4.56-7-7-13.25-7a14.07,14.07,0,0,0-12,5.8v-5h-7.87v39.76h7.87V398.89c0-7,4.14-10.35,9.94-10.35s9.11,3.73,9.11,10.35v22.78h7.87V398.89c0-7,4.14-10.35,9.94-10.35s9.11,3.73,9.11,10.35v22.78Zm129.22-39.35h-14.5v-12H327v12h-8.28v7H327V408c0,9.11,3.31,14.5,13.25,14.5A23.17,23.17,0,0,0,351,419.6l-2.49-7a13.63,13.63,0,0,1-7.46,2.07c-4.14,0-6.21-2.49-6.21-6.63V389h14.5v-6.63Zm73.72-1.24a12.39,12.39,0,0,0-10.77,5.8v-5h-7.87v39.76h7.87V399.31c0-6.63,3.31-10.77,8.7-10.77a24.24,24.24,0,0,1,5.38.83l2.49-7.46a28,28,0,0,0-5.8-.83Zm-111.41,4.14c-4.14-2.9-9.94-4.14-16.15-4.14-9.94,0-16.15,4.56-16.15,12.43,0,6.63,4.56,10.35,13.25,11.6l4.14.41c4.56.83,7.46,2.49,7.46,4.56,0,2.9-3.31,5-9.53,5a21.84,21.84,0,0,1-13.25-4.14l-4.14,6.21c5.8,4.14,12.84,5,17,5,11.6,0,17.81-5.38,17.81-12.84,0-7-5-10.35-13.67-11.6l-4.14-.41c-3.73-.41-7-1.66-7-4.14,0-2.9,3.31-5,7.87-5,5,0,9.94,2.07,12.43,3.31Zm120.11,16.57c0,12,7.87,20.71,20.71,20.71,5.8,0,9.94-1.24,14.08-4.56l-4.14-6.21a16.74,16.74,0,0,1-10.35,3.73c-7,0-12.43-5.38-12.43-13.25S445,389,452.07,389a16.74,16.74,0,0,1,10.35,3.73l4.14-6.21c-4.14-3.31-8.28-4.56-14.08-4.56-12.43-.83-20.71,7.87-20.71,19.88h0Zm-55.5-20.71c-11.6,0-19.47,8.28-19.47,20.71s8.28,20.71,20.29,20.71a25.33,25.33,0,0,0,16.15-5.38l-4.14-5.8a19.79,19.79,0,0,1-11.6,4.14c-5.38,0-11.18-3.31-12-10.35h29.41v-3.31c0-12.43-7.46-20.71-18.64-20.71h0Zm-.41,7.46c5.8,0,9.94,3.73,10.35,9.94H364.68c1.24-5.8,5-9.94,11.18-9.94ZM268.59,401.79V381.91h-7.87v5c-2.9-3.73-7-5.8-12.84-5.8-11.18,0-19.47,8.7-19.47,20.71s8.28,20.71,19.47,20.71c5.8,0,9.94-2.07,12.84-5.8v5h7.87V401.79Zm-31.89,0c0-7.46,4.56-13.25,12.43-13.25,7.46,0,12,5.8,12,13.25,0,7.87-5,13.25-12,13.25-7.87.41-12.43-5.8-12.43-13.25Zm306.08-20.71a12.39,12.39,0,0,0-10.77,5.8v-5h-7.87v39.76H532V399.31c0-6.63,3.31-10.77,8.7-10.77a24.24,24.24,0,0,1,5.38.83l2.49-7.46a28,28,0,0,0-5.8-.83Zm-30.65,20.71V381.91h-7.87v5c-2.9-3.73-7-5.8-12.84-5.8-11.18,0-19.47,8.7-19.47,20.71s8.28,20.71,19.47,20.71c5.8,0,9.94-2.07,12.84-5.8v5h7.87V401.79Zm-31.89,0c0-7.46,4.56-13.25,12.43-13.25,7.46,0,12,5.8,12,13.25,0,7.87-5,13.25-12,13.25-7.87.41-12.43-5.8-12.43-13.25Zm111.83,0V366.17h-7.87v20.71c-2.9-3.73-7-5.8-12.84-5.8-11.18,0-19.47,8.7-19.47,20.71s8.28,20.71,19.47,20.71c5.8,0,9.94-2.07,12.84-5.8v5h7.87V401.79Zm-31.89,0c0-7.46,4.56-13.25,12.43-13.25,7.46,0,12,5.8,12,13.25,0,7.87-5,13.25-12,13.25C564.73,415.46,560.17,409.25,560.17,401.79Z" transform="translate(-132.74 -48.5)"></path>
      <g>
        <rect x="169.81" y="31.89" width="143.72" height="234.42" fill="#ff5f00"></rect>
        <path d="M317.05,197.6A149.5,149.5,0,0,1,373.79,80.39a149.1,149.1,0,1,0,0,234.42A149.5,149.5,0,0,1,317.05,197.6Z" transform="translate(-132.74 -48.5)" fill="#eb001b"></path>
        <path d="M615.26,197.6a148.95,148.95,0,0,1-241,117.21,149.43,149.43,0,0,0,0-234.42,148.95,148.95,0,0,1,241,117.21Z" transform="translate(-132.74 -48.5)" fill="#f79e1b"></path>
      </g>
    </g>
  </symbol>
  <symbol fill="none" xmlns="http://www.w3.org/2000/svg" viewBox="0 -11 70 70" id="visa">
    <rect x="0.5" y="0.5" width="69" height="47" rx="5.5" fill="white" stroke="#D9D9D9"></rect>
    <path fill-rule="evenodd" clip-rule="evenodd" d="M21.2505 32.5165H17.0099L13.8299 20.3847C13.679 19.8267 13.3585 19.3333 12.8871 19.1008C11.7106 18.5165 10.4142 18.0514 9 17.8169V17.3498H15.8313C16.7742 17.3498 17.4813 18.0514 17.5991 18.8663L19.2491 27.6173L23.4877 17.3498H27.6104L21.2505 32.5165ZM29.9675 32.5165H25.9626L29.2604 17.3498H33.2653L29.9675 32.5165ZM38.4467 21.5514C38.5646 20.7346 39.2717 20.2675 40.0967 20.2675C41.3931 20.1502 42.8052 20.3848 43.9838 20.9671L44.6909 17.7016C43.5123 17.2345 42.216 17 41.0395 17C37.1524 17 34.3239 19.1008 34.3239 22.0165C34.3239 24.2346 36.3274 25.3992 37.7417 26.1008C39.2717 26.8004 39.861 27.2675 39.7431 27.9671C39.7431 29.0165 38.5646 29.4836 37.3881 29.4836C35.9739 29.4836 34.5596 29.1338 33.2653 28.5494L32.5582 31.8169C33.9724 32.3992 35.5025 32.6338 36.9167 32.6338C41.2752 32.749 43.9838 30.6502 43.9838 27.5C43.9838 23.5329 38.4467 23.3004 38.4467 21.5514ZM58 32.5165L54.82 17.3498H51.4044C50.6972 17.3498 49.9901 17.8169 49.7544 18.5165L43.8659 32.5165H47.9887L48.8116 30.3004H53.8772L54.3486 32.5165H58ZM51.9936 21.4342L53.1701 27.1502H49.8723L51.9936 21.4342Z" fill="#172B85"></path>
  </symbol>
</svg>