<svg width="0" height="0" class="hidden">
  <symbol version="1.1" xmlns="http://www.w3.org/2000/svg" viewBox="0 0 1024 1024" id="down-arrow.svg">
    <path d="M903.232 256l56.768 50.432L512 768 64 306.432 120.768 256 512 659.072z" fill="#000000"></path>
  </symbol>
  <symbol fill="none" xmlns="http://www.w3.org/2000/svg" viewBox="0 0 24 24" id="instagram.svg">
    <path fill-rule="evenodd" clip-rule="evenodd" d="M2 6C2 3.79086 3.79086 2 6 2H18C20.2091 2 22 3.79086 22 6V18C22 20.2091 20.2091 22 18 22H6C3.79086 22 2 20.2091 2 18V6ZM6 4C4.89543 4 4 4.89543 4 6V18C4 19.1046 4.89543 20 6 20H18C19.1046 20 20 19.1046 20 18V6C20 4.89543 19.1046 4 18 4H6ZM12 9C10.3431 9 9 10.3431 9 12C9 13.6569 10.3431 15 12 15C13.6569 15 15 13.6569 15 12C15 10.3431 13.6569 9 12 9ZM7 12C7 9.23858 9.23858 7 12 7C14.7614 7 17 9.23858 17 12C17 14.7614 14.7614 17 12 17C9.23858 17 7 14.7614 7 12ZM17.5 8C18.3284 8 19 7.32843 19 6.5C19 5.67157 18.3284 5 17.5 5C16.6716 5 16 5.67157 16 6.5C16 7.32843 16.6716 8 17.5 8Z" fill="#000000"></path>
  </symbol>
  <symbol version="1.1" xmlns="http://www.w3.org/2000/svg" xmlns:xlink="http://www.w3.org/1999/xlink" viewBox="0 -2 20 20" id="twitter.svg">
    <title>twitter [#154]</title>
    <desc>Created with Sketch.</desc>
    <defs></defs>
    <g id="Page-1" stroke="none" stroke-width="1" fill="none" fill-rule="evenodd">
      <g id="Dribbble-Light-Preview" transform="translate(-60.000000, -7521.000000)" fill="#000000">
        <g id="icons" transform="translate(56.000000, 160.000000)">
          <path d="M10.29,7377 C17.837,7377 21.965,7370.84365 21.965,7365.50546 C21.965,7365.33021 21.965,7365.15595 21.953,7364.98267 C22.756,7364.41163 23.449,7363.70276 24,7362.8915 C23.252,7363.21837 22.457,7363.433 21.644,7363.52751 C22.5,7363.02244 23.141,7362.2289 23.448,7361.2926 C22.642,7361.76321 21.761,7362.095 20.842,7362.27321 C19.288,7360.64674 16.689,7360.56798 15.036,7362.09796 C13.971,7363.08447 13.518,7364.55538 13.849,7365.95835 C10.55,7365.79492 7.476,7364.261 5.392,7361.73762 C4.303,7363.58363 4.86,7365.94457 6.663,7367.12996 C6.01,7367.11125 5.371,7366.93797 4.8,7366.62489 L4.8,7366.67608 C4.801,7368.5989 6.178,7370.2549 8.092,7370.63591 C7.488,7370.79836 6.854,7370.82199 6.24,7370.70483 C6.777,7372.35099 8.318,7373.47829 10.073,7373.51078 C8.62,7374.63513 6.825,7375.24554 4.977,7375.24358 C4.651,7375.24259 4.325,7375.22388 4,7375.18549 C5.877,7376.37088 8.06,7377 10.29,7376.99705" id="twitter-[#154]"></path>
        </g>
      </g>
    </g>
  </symbol>
  <symbol version="1.1" xmlns="http://www.w3.org/2000/svg" xmlns:xlink="http://www.w3.org/1999/xlink" viewBox="-5 0 20 20" id="facebook.svg">
    <title>facebook [#176]</title>
    <desc>Created with Sketch.</desc>
    <defs></defs>
    <g id="Page-1" stroke="none" stroke-width="1" fill="none" fill-rule="evenodd">
      <g id="Dribbble-Light-Preview" transform="translate(-385.000000, -7399.000000)" fill="#000000">
        <g id="icons" transform="translate(56.000000, 160.000000)">
          <path d="M335.821282,7259 L335.821282,7250 L338.553693,7250 L339,7246 L335.821282,7246 L335.821282,7244.052 C335.821282,7243.022 335.847593,7242 337.286884,7242 L338.744689,7242 L338.744689,7239.14 C338.744689,7239.097 337.492497,7239 336.225687,7239 C333.580004,7239 331.923407,7240.657 331.923407,7243.7 L331.923407,7246 L329,7246 L329,7250 L331.923407,7250 L331.923407,7259 L335.821282,7259 Z" id="facebook-[#176]"></path>
        </g>
      </g>
    </g>
  </symbol>
  <symbol fill="#000000" xmlns="http://www.w3.org/2000/svg" viewBox="0 0 1024 1024" id="tick.svg">
    <g id="SVGRepo_bgCarrier" stroke-width="0"></g>
    <g id="SVGRepo_tracerCarrier" stroke-linecap="round" stroke-linejoin="round"></g>
    <g id="SVGRepo_iconCarrier">
      <path d="M760 380.4l-61.6-61.6-263.2 263.1-109.6-109.5L264 534l171.2 171.2L760 380.4z"></path>
    </g>
  </symbol>
  <symbol fill="#000000" xmlns="http://www.w3.org/2000/svg" stroke="#000000" viewBox="-102.4 -102.4 1228.80 1228.80" id="round tick.svg">
    <g id="SVGRepo_bgCarrier" stroke-width="0">
      <rect x="-102.4" y="-102.4" width="1228.80" height="1228.80" rx="614.4" fill="#ffffff" strokewidth="0"></rect>
    </g>
    <g id="SVGRepo_tracerCarrier" stroke-linecap="round" stroke-linejoin="round"></g>
    <g id="SVGRepo_iconCarrier">
      <path d="M760 380.4l-61.6-61.6-263.2 263.1-109.6-109.5L264 534l171.2 171.2L760 380.4z"></path>
    </g>
  </symbol>
  <symbol fill="none" xmlns="http://www.w3.org/2000/svg" viewBox="0 0 24 24" id="menu.svg">
    <path d="M4 6H20M4 12H20M4 18H20" stroke="#000000" stroke-width="2" stroke-linecap="round" stroke-linejoin="round"></path>
  </symbol>
  <symbol version="1.1" xmlns="http://www.w3.org/2000/svg" xmlns:xlink="http://www.w3.org/1999/xlink" viewBox="0 0 20 20" id="spotifylogo.svg">
    <title>spotify [#162]</title>
    <desc>Created with Sketch.</desc>
    <defs></defs>
    <g id="Page-1" stroke="none" stroke-width="1" fill="none" fill-rule="evenodd">
      <g id="Dribbble-Light-Preview" transform="translate(-140.000000, -7479.000000)" fill="#000000">
        <g id="icons" transform="translate(56.000000, 160.000000)">
          <path d="M99.915,7327.865 C96.692,7325.951 91.375,7325.775 88.297,7326.709 C87.803,7326.858 87.281,7326.58 87.131,7326.085 C86.981,7325.591 87.26,7325.069 87.754,7324.919 C91.287,7323.846 97.159,7324.053 100.87,7326.256 C101.314,7326.52 101.46,7327.094 101.196,7327.538 C100.934,7327.982 100.358,7328.129 99.915,7327.865 L99.915,7327.865 Z M99.81,7330.7 C99.584,7331.067 99.104,7331.182 98.737,7330.957 C96.05,7329.305 91.952,7328.827 88.773,7329.792 C88.36,7329.916 87.925,7329.684 87.8,7329.272 C87.676,7328.86 87.908,7328.425 88.32,7328.3 C91.951,7327.198 96.466,7327.732 99.553,7329.629 C99.92,7329.854 100.035,7330.334 99.81,7330.7 L99.81,7330.7 Z M98.586,7333.423 C98.406,7333.717 98.023,7333.81 97.729,7333.63 C95.381,7332.195 92.425,7331.871 88.944,7332.666 C88.609,7332.743 88.274,7332.533 88.198,7332.197 C88.121,7331.862 88.33,7331.528 88.667,7331.451 C92.476,7330.58 95.743,7330.955 98.379,7332.566 C98.673,7332.746 98.766,7333.129 98.586,7333.423 L98.586,7333.423 Z M94,7319 C88.477,7319 84,7323.477 84,7329 C84,7334.523 88.477,7339 94,7339 C99.523,7339 104,7334.523 104,7329 C104,7323.478 99.523,7319.001 94,7319.001 L94,7319 Z" id="spotify-[#162]"></path>
        </g>
      </g>
    </g>
  </symbol>
</svg>